<svg xmlns="http://www.w3.org/2000/svg" viewBox="0 0 32 32" width="32" height="32" role="img" aria-label="alviKRON">
  <defs>
    <linearGradient id="ring" x1="0%" y1="0%" x2="100%" y2="100%">
      <stop offset="0%" stop-color="#e9d5ff"/>
      <stop offset="45%" stop-color="#c084fc"/>
      <stop offset="100%" stop-color="#7c3aed"/>
    </linearGradient>
    <radialGradient id="face" cx="38%" cy="32%" r="72%">
      <stop offset="0%" stop-color="#7e22ce"/>
      <stop offset="55%" stop-color="#581c87"/>
      <stop offset="100%" stop-color="#3b0764"/>
    </radialGradient>
    <linearGradient id="k" x1="0%" y1="0%" x2="100%" y2="100%">
      <stop offset="0%" stop-color="#fff7fb"/>
      <stop offset="100%" stop-color="#fbcfe8"/>
    </linearGradient>
  </defs>
  <circle cx="16" cy="16" r="15" fill="url(#ring)"/>
  <circle cx="16" cy="16" r="12.2" fill="url(#face)"/>
  <path fill="url(#k)" d="M10.2 8.4 8.8 10.2 10.1 12.1 8.8 14.1 10.2 16 11.6 16 11.6 23.6 14.1 23.6 14.1 16.8 16.8 21.8 19.4 21.8 15.8 15.6 19.6 8.4 17 8.4 14.1 13.6 14.1 8.4Z"/>
  <circle cx="21.2" cy="10.2" r="0.9" fill="#fff" opacity=".95"/>
  <circle cx="23.4" cy="13.8" r="0.7" fill="#fff" opacity=".85"/>
  <circle cx="20.1" cy="16.4" r="0.55" fill="#fff" opacity=".75"/>
</svg>
