<svg xmlns="http://www.w3.org/2000/svg" viewBox="0 0 128 128" role="img" aria-label="alviKRON">
  <defs>
    <linearGradient id="ring" x1="0%" y1="0%" x2="100%" y2="100%">
      <stop offset="0%" stop-color="#f5d0fe"/>
      <stop offset="35%" stop-color="#d8b4fe"/>
      <stop offset="70%" stop-color="#a855f7"/>
      <stop offset="100%" stop-color="#6d28d9"/>
    </linearGradient>
    <radialGradient id="face" cx="38%" cy="32%" r="72%">
      <stop offset="0%" stop-color="#9333ea"/>
      <stop offset="55%" stop-color="#6b21a8"/>
      <stop offset="100%" stop-color="#3b0764"/>
    </radialGradient>
    <linearGradient id="k" x1="0%" y1="0%" x2="100%" y2="100%">
      <stop offset="0%" stop-color="#ffffff"/>
      <stop offset="100%" stop-color="#fbcfe8"/>
    </linearGradient>
    <filter id="glow" x="-20%" y="-20%" width="140%" height="140%">
      <feGaussianBlur stdDeviation="2" result="blur"/>
      <feMerge>
        <feMergeNode in="blur"/>
        <feMergeNode in="SourceGraphic"/>
      </feMerge>
    </filter>
  </defs>
  <circle cx="64" cy="64" r="60" fill="url(#ring)"/>
  <circle cx="64" cy="64" r="49" fill="url(#face)"/>
  <path fill="url(#k)" filter="url(#glow)" d="M40.8 33.6 35.2 40.8 40.4 48.4 35.2 56.4 40.8 64 46.4 64 46.4 94.4 56.4 94.4 56.4 67.2 67.2 87.2 77.6 87.2 63.2 62.4 78.4 33.6 68 33.6 56.4 54.4 56.4 33.6Z"/>
  <path fill="#fff" opacity=".95" d="M84.8 40.8l2.4 2.4-2.4 2.4-2.4-2.4z"/>
  <path fill="#fff" opacity=".85" d="M93.6 55.2l2 2-2 2-2-2z"/>
  <circle cx="80.4" cy="65.6" r="2.2" fill="#fff" opacity=".8"/>
  <circle cx="88.8" cy="48.8" r="1.6" fill="#fff" opacity=".7"/>
</svg>
