<svg xmlns="http://www.w3.org/2000/svg" viewBox="0 0 640 320" role="img" aria-label="alviKRON">
  <defs>
    <linearGradient id="ring" x1="0%" y1="0%" x2="100%" y2="100%">
      <stop offset="0%" stop-color="#f5d0fe"/>
      <stop offset="35%" stop-color="#d8b4fe"/>
      <stop offset="70%" stop-color="#a855f7"/>
      <stop offset="100%" stop-color="#6d28d9"/>
    </linearGradient>
    <radialGradient id="face" cx="38%" cy="32%" r="72%">
      <stop offset="0%" stop-color="#9333ea"/>
      <stop offset="55%" stop-color="#6b21a8"/>
      <stop offset="100%" stop-color="#3b0764"/>
    </radialGradient>
    <linearGradient id="k" x1="0%" y1="0%" x2="100%" y2="100%">
      <stop offset="0%" stop-color="#ffffff"/>
      <stop offset="100%" stop-color="#fbcfe8"/>
    </linearGradient>
    <linearGradient id="alvi" x1="0%" y1="0%" x2="100%" y2="0%">
      <stop offset="0%" stop-color="#7c3aed"/>
      <stop offset="100%" stop-color="#ec4899"/>
    </linearGradient>
  </defs>
  <g transform="translate(40 40)">
    <circle cx="120" cy="120" r="112" fill="url(#ring)"/>
    <circle cx="120" cy="120" r="92" fill="url(#face)"/>
    <path fill="url(#k)" d="M76.5 63 66 76.5 75.8 90.8 66 106.2 76.5 120 87 120 87 177 106.5 177 106.5 126 126 189 145.5 189 118.5 117 142.5 63 123 63 106.5 102 106.5 63Z"/>
    <path fill="#fff" opacity=".95" d="M159 76.5l4.5 4.5-4.5 4.5-4.5-4.5z"/>
    <path fill="#fff" opacity=".85" d="M175.5 103.5l3.8 3.8-3.8 3.8-3.8-3.8z"/>
    <circle cx="150.8 123.2" r="4.1" fill="#fff" opacity=".8"/>
    <circle cx="166.5" cy="91.5" r="3" fill="#fff" opacity=".7"/>
  </g>
  <text x="300" y="188" font-family="Inter, ui-sans-serif, system-ui, sans-serif" font-size="92" font-weight="800" letter-spacing="-2">
    <tspan fill="url(#alvi)">alvi</tspan><tspan fill="#1e293b">KRON</tspan>
  </text>
</svg>
